<svg width="40" height="40" viewBox="0 0 40 40" fill="none" xmlns="http://www.w3.org/2000/svg">
<rect width="40" height="40" fill="white"/>
<g filter="url(#filter0_f_0_1)">
<rect x="4" y="4" width="32" height="32" fill="white"/>
<rect x="4.5" y="4.5" width="31" height="31" stroke="white"/>
</g>
<path d="M32.5 13C32.5 13.5086 32.2444 14.0437 31.6741 14.5829C31.1028 15.1232 30.2493 15.6328 29.1531 16.0713C26.9636 16.9471 23.9045 17.5 20.5 17.5C17.0955 17.5 14.0364 16.9471 11.8469 16.0713C10.7507 15.6328 9.89717 15.1232 9.32587 14.5829C8.75562 14.0437 8.5 13.5086 8.5 13C8.5 12.4914 8.75562 11.9563 9.32587 11.4171C9.89717 10.8768 10.7507 10.3672 11.8469 9.9287C14.0364 9.05288 17.0955 8.5 20.5 8.5C23.9045 8.5 26.9636 9.05288 29.1531 9.9287C30.2493 10.3672 31.1028 10.8768 31.6741 11.4171C32.2444 11.9563 32.5 12.4914 32.5 13Z" fill="#33CCDD" stroke="#BBD6EF"/>
<path d="M20.5 21C20.5 21.537 20.0517 22.1578 19.019 22.6741C18.0163 23.1755 16.5961 23.5 15 23.5C13.4039 23.5 11.9837 23.1755 10.981 22.6741C9.94833 22.1578 9.5 21.537 9.5 21C9.5 20.463 9.94833 19.8422 10.981 19.3259C11.9837 18.8245 13.4039 18.5 15 18.5C16.5961 18.5 18.0163 18.8245 19.019 19.3259C20.0517 19.8422 20.5 20.463 20.5 21Z" fill="#33CCDD" stroke="#BBD6EF"/>
<path d="M15.5 27.5C15.5 27.9558 15.203 28.444 14.5634 28.8438C13.9309 29.2391 13.0259 29.5 12 29.5C10.9741 29.5 10.0691 29.2391 9.43657 28.8438C8.79695 28.444 8.5 27.9558 8.5 27.5C8.5 27.0442 8.79695 26.556 9.43657 26.1562C10.0691 25.7609 10.9741 25.5 12 25.5C13.0259 25.5 13.9309 25.7609 14.5634 26.1562C15.203 26.556 15.5 27.0442 15.5 27.5Z" fill="#33CCDD" stroke="#BBD6EF"/>
<defs>
<filter id="filter0_f_0_1" x="0" y="0" width="40" height="40" filterUnits="userSpaceOnUse" color-interpolation-filters="sRGB">
<feFlood flood-opacity="0" result="BackgroundImageFix"/>
<feBlend mode="normal" in="SourceGraphic" in2="BackgroundImageFix" result="shape"/>
<feGaussianBlur stdDeviation="2" result="effect1_foregroundBlur_0_1"/>
</filter>
</defs>
</svg>
